<svg xmlns="http://www.w3.org/2000/svg" viewBox="0 0 943.75 244.21"><defs><style>.cls-1{fill:#ec2544;}.cls-2{fill:#fff;}.cls-3{fill:#959797;}</style></defs><g id="Layer_2" data-name="Layer 2"><g id="Layer_1-2" data-name="Layer 1"><path class="cls-1" d="M78.81,30a8.46,8.46,0,0,0,0,16.91l.14,0A30.45,30.45,0,1,1,47.16,78.51a8.5,8.5,0,0,0-17,0v0s0,.07,0,.1A47.33,47.33,0,1,0,78.82,30h0"/><path class="cls-1" d="M0,77.12c0,41.67,33.18,75.59,74.69,77.11h.78a8.17,8.17,0,0,0,0-16.33v0a60.68,60.68,0,1,1,62.9-62.78,2.7,2.7,0,0,0,0,.28,8.37,8.37,0,0,0,16.73.15h0a.41.41,0,0,0,0-.1.1.1,0,0,0,0,0s0-.07,0-.12A77.35,77.35,0,0,0,77.61,0C34.76,0,0,34.5,0,77.12"/><path class="cls-2" d="M271.55,113h0v0a8.41,8.41,0,1,0-16.78,0v0h0v77.48h0s0,.06,0,.1a8.41,8.41,0,1,0,16.79,0s0-.07,0-.1h0Z"/><path class="cls-2" d="M386.76,105.17c-4.1-2.18-9.5,0-12.07,4.82,0,0,0,0,0,.06l0,0-33.74,63.7L307.08,110h0l0-.06c-2.56-4.84-8-7-12.07-4.82s-5.34,7.86-2.78,12.7l0,0h0l40.18,75.76h0s0,.06,0,.09a11.32,11.32,0,0,0,3.31,3.84,7.4,7.4,0,0,0,1.5,1.07,7.57,7.57,0,0,0,5.47.57,7.47,7.47,0,0,0,1.8-.65l0,0a11,11,0,0,0,4.77-4.73l0-.1h0l40.14-75.77h0l0,0C392.11,113,390.86,107.34,386.76,105.17Z"/><path class="cls-2" d="M447.71,104.12a47.65,47.65,0,1,0,47.65,47.65A47.58,47.58,0,0,0,447.71,104.12Zm0,78.78a31.14,31.14,0,1,1,31.13-31.13A31.14,31.14,0,0,1,447.71,182.9Z"/><path class="cls-2" d="M186,104.07a47.48,47.48,0,0,0-47.29,47.63v69.48c0,.22,0,.44,0,.67a8.15,8.15,0,0,0,16.29,0s0,0,0-.06h0l0-13.45,0-19.38,0-32.82s0-3.35,0-4.38c.27-16.81,13.66-31.2,30.93-31.2a31,31,0,1,1,0,62.07,30.62,30.62,0,0,1-6-.65h0a8,8,0,0,0-3.87.21,8.4,8.4,0,0,0-5.55,10.33,8.09,8.09,0,0,0,5.48,5.51l0,.06A39.1,39.1,0,0,0,186,199.26a47.6,47.6,0,0,0,0-95.19Z"/><path class="cls-3" d="M608,192.47a6.57,6.57,0,1,1-13.14,0V182.32c-7,11.74-21.49,17.91-35,17.91-26.47,0-47.56-19.31-47.56-48.76s21.09-48.16,47.56-48.16c13.53,0,28.06,5.57,35,17.32v-9.56a6.57,6.57,0,1,1,13.14,0Zm-48.16-5.58c18.9,0,35-12.53,35-35.42s-18.31-34.82-35-34.82c-19.31,0-34.23,13.53-34.23,34.82C525.65,172.17,540.57,186.89,559.88,186.89Z"/><path class="cls-3" d="M653,237.44a6.57,6.57,0,1,1-13.14,0V111.07a6.57,6.57,0,1,1,13.14,0v10.35c7-11.74,21.49-18.11,35-18.11,26.47,0,47.56,19.5,47.56,49s-21.09,48-47.56,48c-13.53,0-28.06-5.38-35-17.12Zm35-120.79c-18.9,0-35,12.73-35,35.62s18.31,34.62,35,34.62c19.31,0,34.23-13.33,34.23-34.62C722.26,131.57,707.34,116.65,688,116.65Z"/><path class="cls-3" d="M774.6,237.44a6.57,6.57,0,1,1-13.14,0V111.07a6.57,6.57,0,1,1,13.14,0v10.35c7-11.74,21.49-18.11,35-18.11,26.47,0,47.56,19.5,47.56,49s-21.09,48-47.56,48c-13.53,0-28.06-5.38-35-17.12Zm35-120.79c-18.91,0-35,12.73-35,35.62s18.3,34.62,35,34.62c19.3,0,34.23-13.33,34.23-34.62C843.85,131.57,828.92,116.65,809.62,116.65Z"/><path class="cls-3" d="M882.86,170.77c3.58-.79,6.37,1.6,7.56,5,2.39,6,7.76,11.94,20.5,11.94,11.94,0,19.7-6,19.7-14.73,0-6.17-3.58-11.94-13.33-14.32l-12.94-3c-11.54-2.79-25.87-8.56-23.48-30.25,2-13.33,15.12-22.09,30.25-22.09,11.94,0,22.88,5,27.46,16.72a6.36,6.36,0,0,1-4.38,8.16c-4.38,1.19-6.37-1.4-8.16-4.58-2.78-5-7.16-7.56-14.92-7.56-9,0-16.32,4.77-17.32,11.34-2,10.75,7.17,13.93,13.74,15.52l12.73,3c17.51,4.18,23.48,14.33,23.48,27.06,0,16.12-14.72,27.27-34,27.27-13.53,0-27.06-8-31.24-21.69A6.09,6.09,0,0,1,882.86,170.77Z"/></g></g></svg>